<mxfile host="app.diagrams.net" agent="Mozilla/5.0 (X11; Linux x86_64; rv:144.0) Gecko/20100101 Firefox/144.0" version="28.0.5">
  <diagram name="Page-1" id="SGQGg8OQSqibMUFg9qBV">
    <mxGraphModel dx="1297" dy="485" grid="1" gridSize="10" guides="1" tooltips="1" connect="1" arrows="1" fold="1" page="1" pageScale="1" pageWidth="850" pageHeight="1100" math="0" shadow="0">
      <root>
        <mxCell id="0" />
        <mxCell id="1" parent="0" />
        <mxCell id="bPhA9pG5KCJPAbUI4mAV-3" value="" style="endArrow=classic;html=1;rounded=0;" edge="1" parent="1">
          <mxGeometry width="50" height="50" relative="1" as="geometry">
            <mxPoint x="40" y="140" as="sourcePoint" />
            <mxPoint x="390" y="140" as="targetPoint" />
          </mxGeometry>
        </mxCell>
        <mxCell id="bPhA9pG5KCJPAbUI4mAV-4" value="Time" style="text;html=1;align=center;verticalAlign=middle;whiteSpace=wrap;rounded=0;" vertex="1" parent="1">
          <mxGeometry x="190" y="140" width="60" height="30" as="geometry" />
        </mxCell>
        <mxCell id="bPhA9pG5KCJPAbUI4mAV-5" value="" style="endArrow=none;dashed=1;html=1;rounded=0;endFill=0;" edge="1" parent="1" source="bPhA9pG5KCJPAbUI4mAV-15">
          <mxGeometry width="50" height="50" relative="1" as="geometry">
            <mxPoint x="40" y="114.8" as="sourcePoint" />
            <mxPoint x="390" y="115" as="targetPoint" />
          </mxGeometry>
        </mxCell>
        <mxCell id="bPhA9pG5KCJPAbUI4mAV-6" value="" style="endArrow=none;dashed=1;html=1;rounded=0;endFill=0;" edge="1" parent="1" source="bPhA9pG5KCJPAbUI4mAV-16">
          <mxGeometry width="50" height="50" relative="1" as="geometry">
            <mxPoint x="40" y="54.76" as="sourcePoint" />
            <mxPoint x="390" y="54.96" as="targetPoint" />
          </mxGeometry>
        </mxCell>
        <mxCell id="bPhA9pG5KCJPAbUI4mAV-8" value="IPv4" style="text;html=1;align=center;verticalAlign=middle;whiteSpace=wrap;rounded=0;" vertex="1" parent="1">
          <mxGeometry x="-10" y="40" width="60" height="30" as="geometry" />
        </mxCell>
        <mxCell id="bPhA9pG5KCJPAbUI4mAV-9" value="IPv6" style="text;html=1;align=center;verticalAlign=middle;whiteSpace=wrap;rounded=0;" vertex="1" parent="1">
          <mxGeometry x="-10" y="100" width="60" height="30" as="geometry" />
        </mxCell>
        <mxCell id="bPhA9pG5KCJPAbUI4mAV-14" value="" style="endArrow=none;dashed=1;html=1;rounded=0;fillColor=#f8cecc;strokeColor=#b85450;" edge="1" parent="1">
          <mxGeometry width="50" height="50" relative="1" as="geometry">
            <mxPoint x="300" y="100" as="sourcePoint" />
            <mxPoint x="300" y="40" as="targetPoint" />
          </mxGeometry>
        </mxCell>
        <mxCell id="bPhA9pG5KCJPAbUI4mAV-17" value="" style="endArrow=none;dashed=1;html=1;rounded=0;endFill=0;" edge="1" parent="1" target="bPhA9pG5KCJPAbUI4mAV-16">
          <mxGeometry width="50" height="50" relative="1" as="geometry">
            <mxPoint x="40" y="54.76" as="sourcePoint" />
            <mxPoint x="390" y="54.96" as="targetPoint" />
          </mxGeometry>
        </mxCell>
        <mxCell id="bPhA9pG5KCJPAbUI4mAV-16" value="TCP SYN" style="text;html=1;align=center;verticalAlign=middle;whiteSpace=wrap;rounded=0;" vertex="1" parent="1">
          <mxGeometry x="310" y="40" width="60" height="30" as="geometry" />
        </mxCell>
        <mxCell id="bPhA9pG5KCJPAbUI4mAV-18" value="" style="endArrow=none;dashed=1;html=1;rounded=0;endFill=0;" edge="1" parent="1" source="bPhA9pG5KCJPAbUI4mAV-12" target="bPhA9pG5KCJPAbUI4mAV-13">
          <mxGeometry width="50" height="50" relative="1" as="geometry">
            <mxPoint x="40" y="114.8" as="sourcePoint" />
            <mxPoint x="390" y="115" as="targetPoint" />
          </mxGeometry>
        </mxCell>
        <mxCell id="bPhA9pG5KCJPAbUI4mAV-13" value="TCP SYN" style="text;html=1;align=center;verticalAlign=middle;whiteSpace=wrap;rounded=0;" vertex="1" parent="1">
          <mxGeometry x="160" y="100" width="60" height="30" as="geometry" />
        </mxCell>
        <mxCell id="bPhA9pG5KCJPAbUI4mAV-19" value="" style="endArrow=none;dashed=1;html=1;rounded=0;endFill=0;" edge="1" parent="1" target="bPhA9pG5KCJPAbUI4mAV-12">
          <mxGeometry width="50" height="50" relative="1" as="geometry">
            <mxPoint x="40" y="114.8" as="sourcePoint" />
            <mxPoint x="150" y="115" as="targetPoint" />
          </mxGeometry>
        </mxCell>
        <mxCell id="bPhA9pG5KCJPAbUI4mAV-12" value="DNS (A + AAAA)" style="text;html=1;align=center;verticalAlign=middle;whiteSpace=wrap;rounded=0;" vertex="1" parent="1">
          <mxGeometry x="40" y="100" width="100" height="30" as="geometry" />
        </mxCell>
        <mxCell id="bPhA9pG5KCJPAbUI4mAV-20" value="" style="endArrow=none;dashed=1;html=1;rounded=0;fillColor=#f8cecc;strokeColor=#b85450;" edge="1" parent="1" target="bPhA9pG5KCJPAbUI4mAV-15">
          <mxGeometry width="50" height="50" relative="1" as="geometry">
            <mxPoint x="270" y="130" as="sourcePoint" />
            <mxPoint x="270" y="40" as="targetPoint" />
          </mxGeometry>
        </mxCell>
        <mxCell id="bPhA9pG5KCJPAbUI4mAV-21" value="" style="endArrow=none;dashed=1;html=1;rounded=0;endFill=0;" edge="1" parent="1" source="bPhA9pG5KCJPAbUI4mAV-13" target="bPhA9pG5KCJPAbUI4mAV-15">
          <mxGeometry width="50" height="50" relative="1" as="geometry">
            <mxPoint x="210" y="115" as="sourcePoint" />
            <mxPoint x="390" y="115" as="targetPoint" />
          </mxGeometry>
        </mxCell>
        <mxCell id="bPhA9pG5KCJPAbUI4mAV-15" value="Timeout" style="text;strokeColor=none;fillColor=none;align=left;verticalAlign=middle;spacingLeft=4;spacingRight=4;overflow=hidden;points=[[0,0.5],[1,0.5]];portConstraint=eastwest;rotatable=0;whiteSpace=wrap;html=1;" vertex="1" parent="1">
          <mxGeometry x="270" y="100" width="60" height="30" as="geometry" />
        </mxCell>
      </root>
    </mxGraphModel>
  </diagram>
</mxfile>
